<svg width="61" height="61" viewBox="0 0 61 61" fill="none" xmlns="http://www.w3.org/2000/svg">
<circle cx="30.5" cy="30.5" r="30.5" fill="#D9D9D9"/>
<path d="M39 41V39C39 37.9391 38.5786 36.9217 37.8284 36.1716C37.0783 35.4214 36.0609 35 35 35H27C25.9391 35 24.9217 35.4214 24.1716 36.1716C23.4214 36.9217 23 37.9391 23 39V41" stroke="black" stroke-width="2" stroke-linecap="round" stroke-linejoin="round"/>
<path d="M31 31C33.2091 31 35 29.2091 35 27C35 24.7909 33.2091 23 31 23C28.7909 23 27 24.7909 27 27C27 29.2091 28.7909 31 31 31Z" stroke="black" stroke-width="2" stroke-linecap="round" stroke-linejoin="round"/>
</svg>
